<?xml version="1.0" encoding="UTF-8" standalone="no"?>
<!-- Created with Inkscape (http://www.inkscape.org/) -->

<svg
   xmlns:dc="http://purl.org/dc/elements/1.1/"
   xmlns:cc="http://creativecommons.org/ns#"
   xmlns:rdf="http://www.w3.org/1999/02/22-rdf-syntax-ns#"
   xmlns:svg="http://www.w3.org/2000/svg"
   xmlns="http://www.w3.org/2000/svg"
   xmlns:sodipodi="http://sodipodi.sourceforge.net/DTD/sodipodi-0.dtd"
   xmlns:inkscape="http://www.inkscape.org/namespaces/inkscape"
   version="1.1"
   id="svg2"
   xml:space="preserve"
   width="194.13335"
   height="57.600002"
   viewBox="0 0 194.13335 57.600002"
   sodipodi:docname="Schriftzug_en.svg"
   inkscape:version="0.92.2 (5c3e80d, 2017-08-06)"><metadata
     id="metadata8"><rdf:RDF><cc:Work
         rdf:about=""><dc:format>image/svg+xml</dc:format><dc:type
           rdf:resource="http://purl.org/dc/dcmitype/StillImage" /><dc:title></dc:title></cc:Work></rdf:RDF></metadata><defs
     id="defs6" /><sodipodi:namedview
     pagecolor="#ffffff"
     bordercolor="#666666"
     borderopacity="1"
     objecttolerance="10"
     gridtolerance="10"
     guidetolerance="10"
     inkscape:pageopacity="0"
     inkscape:pageshadow="2"
     inkscape:window-width="888"
     inkscape:window-height="480"
     id="namedview4"
     showgrid="false"
     inkscape:zoom="2.2664834"
     inkscape:cx="97.066673"
     inkscape:cy="28.800001"
     inkscape:window-x="0"
     inkscape:window-y="0"
     inkscape:window-maximized="0"
     inkscape:current-layer="g10" /><g
     id="g10"
     inkscape:groupmode="layer"
     inkscape:label="Schriftzug_en"
     transform="matrix(1.3333333,0,0,-1.3333333,0,57.600001)"><g
       id="g12"><path
         d="M 39.438,38.555 V 23.302 h -4.985 v 15.253 h -6.109 v 4.083 h 17.199 v -4.083 h -6.105"
         style="fill:#231f20;fill-opacity:1;fill-rule:nonzero;stroke:none"
         id="path14"
         inkscape:connector-curvature="0" /><path
         d="m 53.074,38.61 v -4.875 l 1.672,-0.027 c 0.914,0 1.606,0.012 2.082,0.043 0.473,0.023 0.883,0.121 1.231,0.285 0.496,0.219 0.832,0.535 1.015,0.945 0.18,0.414 0.274,0.809 0.274,1.192 0,0.586 -0.114,1.019 -0.344,1.316 -0.227,0.289 -0.422,0.492 -0.586,0.602 -0.387,0.254 -0.898,0.406 -1.535,0.449 -0.641,0.047 -1.27,0.07 -1.891,0.07 z m 2.656,4.028 c 0.532,0 1.086,-0.012 1.672,-0.028 0.586,-0.019 1.164,-0.078 1.739,-0.18 0.578,-0.101 1.14,-0.265 1.699,-0.492 0.558,-0.23 1.082,-0.554 1.574,-0.972 0.586,-0.512 1.066,-1.168 1.453,-1.973 0.383,-0.805 0.574,-1.734 0.574,-2.793 0,-0.602 -0.082,-1.195 -0.246,-1.781 -0.164,-0.582 -0.406,-1.121 -0.726,-1.614 -0.321,-0.496 -0.727,-0.929 -1.219,-1.3 -0.492,-0.375 -1.07,-0.672 -1.723,-0.891 l 3.942,-7.312 h -5.367 l -3.508,6.519 h -2.52 v -6.519 h -4.929 v 19.336 h 7.585"
         style="fill:#231f20;fill-opacity:1;fill-rule:nonzero;stroke:none"
         id="path16"
         inkscape:connector-curvature="0" /><path
         d="m 76.492,38.747 c -0.75,-0.016 -1.402,-0.168 -1.957,-0.453 -0.558,-0.281 -1.019,-0.672 -1.383,-1.176 -0.367,-0.504 -0.644,-1.094 -0.836,-1.781 -0.191,-0.684 -0.289,-1.422 -0.289,-2.203 0,-0.844 0.09,-1.621 0.274,-2.344 0.183,-0.719 0.457,-1.352 0.82,-1.891 0.367,-0.535 0.832,-0.957 1.402,-1.258 0.563,-0.3 1.219,-0.453 1.969,-0.453 0.785,0 1.426,0.145 1.918,0.438 0.492,0.293 0.867,0.578 1.121,0.851 0.551,0.582 0.918,1.27 1.11,2.051 0.191,0.789 0.285,1.59 0.285,2.414 0,0.801 -0.082,1.563 -0.258,2.27 -0.172,0.715 -0.438,1.336 -0.793,1.863 -0.355,0.531 -0.816,0.945 -1.383,1.246 -0.566,0.305 -1.234,0.445 -2,0.426 z m 0,4.215 c 1.531,0 2.899,-0.266 4.094,-0.805 1.195,-0.539 2.207,-1.269 3.027,-2.191 0.821,-0.922 1.446,-1.989 1.875,-3.203 0.43,-1.215 0.645,-2.5 0.645,-3.852 0,-0.434 -0.035,-0.965 -0.098,-1.586 -0.062,-0.621 -0.207,-1.277 -0.433,-1.973 -0.231,-0.691 -0.563,-1.402 -1.004,-2.121 -0.438,-0.722 -1.039,-1.41 -1.805,-2.07 -0.551,-0.453 -1.102,-0.824 -1.66,-1.106 -0.555,-0.285 -1.106,-0.507 -1.641,-0.671 -0.539,-0.164 -1.066,-0.274 -1.574,-0.332 -0.516,-0.055 -0.988,-0.079 -1.426,-0.079 -0.383,0 -0.851,0.024 -1.398,0.079 -0.547,0.058 -1.137,0.179 -1.766,0.375 -0.629,0.187 -1.273,0.476 -1.93,0.859 -0.66,0.383 -1.296,0.906 -1.918,1.562 -0.914,0.985 -1.585,2.098 -2.011,3.34 -0.43,1.242 -0.645,2.52 -0.645,3.836 0,0.457 0.031,0.992 0.098,1.617 0.062,0.618 0.211,1.278 0.449,1.969 0.238,0.695 0.578,1.403 1.012,2.125 0.441,0.719 1.043,1.399 1.808,2.039 0.547,0.457 1.102,0.824 1.661,1.11 0.554,0.281 1.109,0.507 1.656,0.671 0.547,0.165 1.074,0.274 1.574,0.329 0.5,0.054 0.973,0.078 1.41,0.078"
         style="fill:#231f20;fill-opacity:1;fill-rule:nonzero;stroke:none"
         id="path18"
         inkscape:connector-curvature="0" /><path
         d="m 94.02,38.638 v -5.34 h 1.972 c 0.586,0 1.07,0.011 1.449,0.043 0.387,0.023 0.731,0.101 1.043,0.23 0.95,0.383 1.426,1.188 1.426,2.41 0,0.676 -0.117,1.192 -0.344,1.547 -0.23,0.356 -0.531,0.617 -0.902,0.781 -0.375,0.164 -0.801,0.262 -1.273,0.289 -0.477,0.028 -0.961,0.04 -1.453,0.04 z m 0,-9.559 v -5.777 h -4.93 v 19.336 h 7.668 c 0.457,0 0.926,-0.008 1.41,-0.016 0.484,-0.012 0.969,-0.051 1.453,-0.125 0.484,-0.07 0.957,-0.188 1.422,-0.356 0.465,-0.16 0.922,-0.39 1.359,-0.683 0.637,-0.438 1.133,-0.934 1.477,-1.492 0.348,-0.559 0.605,-1.106 0.766,-1.645 0.167,-0.539 0.261,-1.019 0.289,-1.449 0.027,-0.43 0.043,-0.734 0.043,-0.918 0,-0.859 -0.079,-1.586 -0.235,-2.18 -0.156,-0.59 -0.336,-1.094 -0.547,-1.504 -0.211,-0.41 -0.429,-0.734 -0.656,-0.972 -0.23,-0.239 -0.41,-0.422 -0.535,-0.547 -0.402,-0.367 -0.816,-0.649 -1.246,-0.852 -0.43,-0.199 -0.895,-0.359 -1.399,-0.476 -0.5,-0.121 -1.043,-0.203 -1.629,-0.246 -0.582,-0.047 -1.234,-0.082 -1.941,-0.098 H 94.02"
         style="fill:#231f20;fill-opacity:1;fill-rule:nonzero;stroke:none"
         id="path20"
         inkscape:connector-curvature="0" /><path
         d="m 116.723,38.747 c -0.746,-0.016 -1.399,-0.168 -1.957,-0.453 -0.559,-0.281 -1.02,-0.672 -1.383,-1.176 -0.363,-0.504 -0.645,-1.094 -0.836,-1.781 -0.192,-0.684 -0.285,-1.422 -0.285,-2.203 0,-0.844 0.09,-1.621 0.273,-2.344 0.18,-0.719 0.453,-1.352 0.82,-1.891 0.364,-0.535 0.833,-0.957 1.399,-1.258 0.566,-0.3 1.223,-0.453 1.969,-0.453 0.789,0 1.425,0.145 1.918,0.438 0.496,0.293 0.867,0.578 1.121,0.851 0.55,0.582 0.918,1.27 1.109,2.051 0.191,0.789 0.289,1.59 0.289,2.414 0,0.801 -0.086,1.563 -0.258,2.27 -0.175,0.715 -0.441,1.336 -0.797,1.863 -0.355,0.531 -0.816,0.945 -1.382,1.246 -0.567,0.305 -1.231,0.445 -2,0.426 z m 0,4.215 c 1.535,0 2.898,-0.266 4.093,-0.805 1.196,-0.539 2.207,-1.269 3.028,-2.191 0.824,-0.922 1.449,-1.989 1.879,-3.203 0.425,-1.215 0.64,-2.5 0.64,-3.852 0,-0.434 -0.031,-0.965 -0.093,-1.586 -0.067,-0.621 -0.211,-1.277 -0.438,-1.973 -0.23,-0.691 -0.562,-1.402 -1,-2.121 -0.437,-0.722 -1.043,-1.41 -1.809,-2.07 -0.546,-0.453 -1.101,-0.824 -1.656,-1.106 -0.558,-0.285 -1.105,-0.507 -1.644,-0.671 -0.539,-0.164 -1.063,-0.274 -1.575,-0.332 -0.511,-0.055 -0.984,-0.079 -1.425,-0.079 -0.383,0 -0.848,0.024 -1.395,0.079 -0.547,0.058 -1.137,0.179 -1.766,0.375 -0.632,0.187 -1.273,0.476 -1.933,0.859 -0.656,0.383 -1.297,0.906 -1.918,1.562 -0.91,0.985 -1.582,2.098 -2.012,3.34 -0.429,1.242 -0.64,2.52 -0.64,3.836 0,0.457 0.027,0.992 0.093,1.617 0.063,0.618 0.215,1.278 0.453,1.969 0.235,0.695 0.575,1.403 1.012,2.125 0.438,0.719 1.043,1.399 1.809,2.039 0.547,0.457 1.101,0.824 1.656,1.11 0.559,0.281 1.109,0.507 1.656,0.671 0.547,0.165 1.071,0.274 1.574,0.329 0.504,0.054 0.973,0.078 1.411,0.078"
         style="fill:#231f20;fill-opacity:1;fill-rule:nonzero;stroke:none"
         id="path22"
         inkscape:connector-curvature="0" /><path
         d="m 135.648,30.888 c -0.418,0.074 -0.855,0.156 -1.3,0.246 -0.45,0.089 -0.891,0.203 -1.328,0.343 -0.438,0.137 -0.864,0.305 -1.274,0.504 -0.41,0.203 -0.789,0.457 -1.137,0.77 -0.621,0.527 -1.062,1.144 -1.328,1.847 -0.265,0.704 -0.398,1.465 -0.398,2.286 0,1.113 0.226,2.058 0.672,2.836 0.449,0.777 1.031,1.41 1.754,1.902 0.722,0.496 1.535,0.848 2.437,1.07 0.902,0.219 1.813,0.328 2.723,0.328 0.75,0 1.519,-0.066 2.316,-0.191 0.793,-0.129 1.567,-0.336 2.313,-0.617 0.75,-0.282 1.453,-0.649 2.109,-1.098 0.66,-0.445 1.223,-1 1.699,-1.652 l -3.23,-2.66 c -0.184,0.218 -0.403,0.461 -0.66,0.726 -0.258,0.266 -0.586,0.516 -0.985,0.754 -0.402,0.238 -0.89,0.438 -1.465,0.602 -0.578,0.164 -1.273,0.246 -2.097,0.246 -0.692,0 -1.297,-0.141 -1.821,-0.422 -0.519,-0.285 -0.781,-0.711 -0.781,-1.274 0,-0.203 0.024,-0.363 0.071,-0.48 0.042,-0.121 0.113,-0.254 0.207,-0.399 0.144,-0.199 0.5,-0.378 1.066,-0.531 0.566,-0.156 1.344,-0.308 2.328,-0.453 0.731,-0.109 1.309,-0.203 1.738,-0.277 0.43,-0.071 0.778,-0.141 1.043,-0.203 0.262,-0.063 0.477,-0.125 0.641,-0.176 0.164,-0.055 0.348,-0.113 0.551,-0.168 0.215,-0.07 0.55,-0.207 1,-0.41 0.445,-0.199 0.886,-0.5 1.324,-0.903 0.441,-0.402 0.828,-0.925 1.168,-1.574 0.336,-0.648 0.504,-1.449 0.504,-2.398 0,-1.297 -0.231,-2.36 -0.699,-3.188 -0.461,-0.832 -1.094,-1.496 -1.887,-1.988 -0.797,-0.492 -1.711,-0.836 -2.754,-1.027 -1.039,-0.192 -2.125,-0.286 -3.262,-0.286 -0.726,0 -1.496,0.051 -2.297,0.149 -0.804,0.101 -1.589,0.293 -2.355,0.578 -0.77,0.281 -1.496,0.668 -2.192,1.164 -0.695,0.488 -1.296,1.129 -1.808,1.914 l 3.672,2.906 c 0.219,-0.242 0.457,-0.507 0.711,-0.808 0.254,-0.305 0.578,-0.59 0.972,-0.867 0.391,-0.274 0.871,-0.504 1.438,-0.696 0.566,-0.191 1.25,-0.289 2.051,-0.289 0.148,0 0.332,0.008 0.55,0.016 0.219,0.008 0.442,0.031 0.672,0.066 0.227,0.035 0.461,0.094 0.696,0.164 0.238,0.075 0.449,0.176 0.632,0.305 0.493,0.344 0.739,0.781 0.739,1.313 0,0.312 -0.075,0.566 -0.219,0.765 -0.109,0.168 -0.242,0.305 -0.398,0.41 -0.157,0.11 -0.352,0.203 -0.586,0.274 -0.239,0.074 -0.539,0.136 -0.907,0.191 -0.363,0.059 -0.812,0.121 -1.339,0.195 l -1.29,0.165"
         style="fill:#231f20;fill-opacity:1;fill-rule:nonzero;stroke:none"
         id="path24"
         inkscape:connector-curvature="0" /><text
         transform="matrix(1,0,0,-1,-0.758961,11.280521)"
         style="font-variant:normal;font-weight:normal;font-size:9.60000038px;font-family:'Helvetica LT Std';-inkscape-font-specification:HelveticaLTStd-Roman;writing-mode:lr-tb;fill:#000000;fill-opacity:1;fill-rule:nonzero;stroke:none"
         id="text30"><tspan
           x="0 5.3376002 10.6752 12.8064 18.1728 23.510401 25.6416 30.441601 33.110401 35.779202 41.116798 45.916801 48.585602 50.716801 53.385601 58.723202 61.200001 66.537598 69.206398 71.596802 76.934402"
           y="0"
           sodipodi:role="line"
           id="tspan26">Leibniz Institute for</tspan><tspan
           x="13.954829 18.678028 21.702028 27.039629 32.377228 37.714828 42.514828 47.852428 53.21883 58.556427 61.916428 64.04763 68.847626 71.516426 78.274826 83.612427 88.41243 93.750031 99.087631 102.12123 106.92123"
           y="8.9998655"
           sodipodi:role="line"
           id="tspan28">Tropospheric Research</tspan></text>
</g></g></svg>