<?xml version="1.0" encoding="UTF-8" standalone="no"?>
<!-- Created with Inkscape (http://www.inkscape.org/) -->

<svg
   xmlns:dc="http://purl.org/dc/elements/1.1/"
   xmlns:cc="http://creativecommons.org/ns#"
   xmlns:rdf="http://www.w3.org/1999/02/22-rdf-syntax-ns#"
   xmlns:svg="http://www.w3.org/2000/svg"
   xmlns="http://www.w3.org/2000/svg"
   xmlns:sodipodi="http://sodipodi.sourceforge.net/DTD/sodipodi-0.dtd"
   xmlns:inkscape="http://www.inkscape.org/namespaces/inkscape"
   width="143"
   height="25"
   viewBox="0 0 37.835416 6.6145837"
   version="1.1"
   id="svg1518"
   inkscape:version="0.92.2 (5c3e80d, 2017-08-06)"
   sodipodi:docname="eumetsat_logo.svg">
  <defs
     id="defs1512">
    <clipPath
       clipPathUnits="userSpaceOnUse"
       id="clipPath1408">
      <path
         d="m 78.189,749.742 h 117.867 v 29.165 H 78.189 Z"
         id="path1406"
         inkscape:connector-curvature="0" />
    </clipPath>
    <radialGradient
       fx="0"
       fy="0"
       cx="0"
       cy="0"
       r="1"
       gradientUnits="userSpaceOnUse"
       gradientTransform="matrix(9.0340881,0,0,-9.0340881,88.894043,769.18555)"
       spreadMethod="pad"
       id="radialGradient1458">
      <stop
         style="stop-opacity:1;stop-color:#edeff2"
         offset="0"
         id="stop1454" />
      <stop
         style="stop-opacity:1;stop-color:#56778e"
         offset="1"
         id="stop1456" />
    </radialGradient>
  </defs>
  <sodipodi:namedview
     id="base"
     pagecolor="#ffffff"
     bordercolor="#666666"
     borderopacity="1.0"
     inkscape:pageopacity="0.0"
     inkscape:pageshadow="2"
     inkscape:zoom="3.959798"
     inkscape:cx="92.284557"
     inkscape:cy="70.954836"
     inkscape:document-units="mm"
     inkscape:current-layer="layer1"
     showgrid="false"
     units="px"
     inkscape:window-width="1920"
     inkscape:window-height="1140"
     inkscape:window-x="0"
     inkscape:window-y="0"
     inkscape:window-maximized="1" />
  <metadata
     id="metadata1515">
    <rdf:RDF>
      <cc:Work
         rdf:about="">
        <dc:format>image/svg+xml</dc:format>
        <dc:type
           rdf:resource="http://purl.org/dc/dcmitype/StillImage" />
        <dc:title></dc:title>
      </cc:Work>
    </rdf:RDF>
  </metadata>
  <g
     inkscape:label="Ebene 1"
     inkscape:groupmode="layer"
     id="layer1"
     transform="translate(0,-290.38537)">
    <g
       transform="matrix(0.35277777,0,0,-0.35277777,-29.522679,563.35157)"
       id="g1402">
      <g
         id="g1404"
         clip-path="url(#clipPath1408)">
        <g
           id="g1410"
           transform="translate(175.17461,761.4901)">
          <path
             d="M 0,0 C 0.316,1.129 0.772,2.437 0.989,3.507 1.188,2.437 1.623,1.108 1.921,0 Z m 2.435,6.454 h -2.693 l -3.92,-10.671 h 2.792 l 0.752,2.257 h 3.147 l 0.811,-2.257 h 2.792 z"
             style="fill:#002d69;fill-opacity:1;fill-rule:nonzero;stroke:none"
             id="path1412"
             inkscape:connector-curvature="0" />
        </g>
        <g
           id="g1414"
           transform="translate(166.7175,763.7941)">
          <path
             d="m 0,0 -1.397,0.328 c -0.873,0.214 -1.086,0.428 -1.086,0.932 0,0.583 0.583,0.951 1.396,0.951 0.816,0 1.728,-0.251 2.718,-0.776 L 2.853,3.24 C 1.882,3.88 0.27,4.307 -1.145,4.307 c -2.503,0 -4.231,-1.397 -4.231,-3.318 0,-0.582 0.137,-1.105 0.429,-1.61 0.407,-0.698 1.144,-1.203 2.269,-1.474 l 1.321,-0.312 C -0.406,-2.619 0,-3.008 0,-3.571 c 0,-0.717 -0.62,-1.028 -1.843,-1.028 -1.145,0 -2.017,0.311 -3.104,0.776 l -0.855,-1.979 c 1.262,-0.601 2.562,-0.872 3.823,-0.872 2.969,0 4.929,1.435 4.929,3.646 0,1.592 -1.126,2.6 -2.95,3.028"
             style="fill:#002d69;fill-opacity:1;fill-rule:nonzero;stroke:none"
             id="path1416"
             inkscape:connector-curvature="0" />
        </g>
        <g
           id="g1418"
           transform="translate(135.97971,767.9041)">
          <path
             d="m 0,0 -1.407,-4.85 c -0.177,-0.614 -0.356,-1.347 -0.455,-2 -0.12,0.673 -0.236,1.189 -0.436,1.9 L -3.645,0 H -6.99 l -1.149,-10.631 h 2.673 l 0.318,5.187 c 0.038,0.653 0.097,1.526 0.119,2.257 0.157,-0.851 0.373,-1.782 0.513,-2.257 l 1.447,-5.187 h 2.255 l 1.586,5.365 c 0.157,0.555 0.395,1.248 0.533,1.862 0.039,-0.733 0.079,-1.367 0.119,-1.921 L 1.78,-10.631 H 4.373 L 3.285,0 Z"
             style="fill:#002d69;fill-opacity:1;fill-rule:nonzero;stroke:none"
             id="path1420"
             inkscape:connector-curvature="0" />
        </g>
        <g
           id="g1422"
           transform="translate(122.8819,761.1931)">
          <path
             d="m 0,0 c 0,-1.109 -0.158,-1.386 -0.375,-1.584 -0.28,-0.238 -0.712,-0.435 -1.247,-0.435 -0.615,0 -1.111,0.197 -1.385,0.573 -0.199,0.258 -0.221,0.595 -0.221,1.229 V 6.712 H -5.92 v -7.226 c 0,-0.992 0.118,-1.664 0.574,-2.258 0.695,-0.89 2.06,-1.345 3.823,-1.345 1.662,0 2.75,0.534 3.326,1.089 0.593,0.573 0.89,1.107 0.89,2.67 v 7.07 H 0 Z"
             style="fill:#002d69;fill-opacity:1;fill-rule:nonzero;stroke:none"
             id="path1424"
             inkscape:connector-curvature="0" />
        </g>
        <g
           id="g1426"
           transform="translate(181.69279,767.9041)">
          <path
             d="m 0,0 v -2.098 h 2.751 v -8.533 h 2.714 v 8.533 H 7.564 C 8.198,-1.683 8.631,0 8.631,0 Z"
             style="fill:#002d69;fill-opacity:1;fill-rule:nonzero;stroke:none"
             id="path1428"
             inkscape:connector-curvature="0" />
        </g>
        <g
           id="g1430"
           transform="translate(110.3351,761.7901)">
          <path
             d="m 0,0 h 3.091 v 2.082 h -3.112 v 1.981 h 3.105 c 0.471,0.363 0.825,1.399 0.96,1.85 L 4.082,6.124 H -2.675 V -4.518 h 6.877 v 2.16 H 0 Z"
             style="fill:#002d69;fill-opacity:1;fill-rule:nonzero;stroke:none"
             id="path1432"
             inkscape:connector-curvature="0" />
        </g>
        <g
           id="g1434"
           transform="translate(145.6667,761.7901)">
          <path
             d="m 0,0 h 3.091 v 2.082 h -3.112 v 1.981 h 3.105 c 0.471,0.363 0.825,1.399 0.96,1.85 L 4.082,6.124 H -2.676 V -4.518 h 6.878 v 2.16 H 0 Z"
             style="fill:#002d69;fill-opacity:1;fill-rule:nonzero;stroke:none"
             id="path1436"
             inkscape:connector-curvature="0" />
        </g>
        <g
           id="g1438"
           transform="translate(151.537,767.9041)">
          <path
             d="m 0,0 v -2.098 h 2.752 v -8.533 h 2.713 v 8.533 H 7.564 C 8.198,-1.683 8.631,0 8.631,0 Z"
             style="fill:#002d69;fill-opacity:1;fill-rule:nonzero;stroke:none"
             id="path1440"
             inkscape:connector-curvature="0" />
        </g>
      </g>
    </g>
    <g
       transform="matrix(0.35277777,0,0,-0.35277777,-29.522679,563.35157)"
       id="g1442">
      <g
         id="g1444">
        <g
           id="g1450">
          <g
             id="g1452">
            <path
               d="m 84.013,764.359 c 0,-4.935 4,-8.934 8.934,-8.934 v 0 c 2.05,0 3.936,0.692 5.444,1.852 v 0 H 88.076 c 0.284,0.196 2.575,1.788 4.999,3.901 v 0 h 8.221 c 0.207,0.542 0.362,1.111 0.461,1.699 v 0 h -6.835 c 1.086,1.062 2.1,2.187 2.862,3.29 v 0 h 3.913 c -0.12,0.591 -0.3,1.159 -0.532,1.7 v 0 h -2.417 c 0.578,1.354 0.59,2.601 -0.345,3.563 v 0 c -1.509,1.167 -3.401,1.863 -5.456,1.863 v 0 c -4.934,0 -8.934,-4 -8.934,-8.934"
               style="fill:url(#radialGradient1458);stroke:none"
               id="path1460"
               inkscape:connector-curvature="0" />
          </g>
        </g>
      </g>
    </g>
  </g>
</svg>
